<?xml version="1.0" standalone="no"?>
<!DOCTYPE svg PUBLIC "-//W3C//DTD SVG 20010904//EN"
 "http://www.w3.org/TR/2001/REC-SVG-20010904/DTD/svg10.dtd">
<svg version="1.0" xmlns="http://www.w3.org/2000/svg"
 width="200.000000pt" height="200.000000pt" viewBox="0 0 200.000000 200.000000"
 preserveAspectRatio="xMidYMid meet">
<metadata>
Created by potrace 1.16, written by Peter Selinger 2001-2019
</metadata>
<g transform="translate(0.000000,200.000000) scale(0.100000,-0.100000)"
fill="#24292e" stroke="none">
<path d="M101 1979 c-42 -26 -54 -38 -80 -80 -21 -34 -21 -42 -21 -899 0 -857
0 -865 21 -899 26 -42 38 -54 80 -80 34 -21 42 -21 899 -21 857 0 865 0 899
21 42 26 54 38 80 80 21 34 21 42 21 899 0 857 0 865 -21 899 -26 42 -38 54
-80 80 -34 21 -42 21 -899 21 -857 0 -865 0 -899 -21z m1418 -314 c74 -8 137
-17 139 -20 3 -3 -3 -42 -14 -87 -14 -62 -19 -121 -19 -230 l0 -147 -22 14
c-13 8 -33 22 -45 30 -45 28 -159 65 -230 73 -231 28 -492 -91 -582 -265 -9
-18 -16 -34 -16 -37 0 -6 53 2 93 14 l27 9 0 -73 c0 -100 22 -158 84 -222 64
-65 137 -94 255 -102 80 -5 84 -4 77 14 -13 31 -73 276 -80 324 l-6 45 152 1
c140 0 160 3 232 27 43 15 80 26 82 24 2 -2 -5 -48 -15 -103 -10 -54 -22 -121
-26 -148 -7 -55 -7 -55 53 -2 16 15 22 16 22 5 -1 -35 -32 -144 -55 -189 -22
-44 -25 -62 -25 -163 l0 -113 -92 -13 c-90 -12 -94 -11 -110 9 -9 11 -18 25
-20 30 -2 5 -31 0 -68 -12 -56 -19 -88 -22 -240 -22 -184 -1 -208 3 -331 55
-195 82 -344 280 -399 529 -11 46 -18 85 -17 87 2 1 19 -2 39 -6 44 -10 48 -7
48 35 0 45 36 157 75 234 109 212 346 363 630 399 110 14 258 12 404 -4z"/>
</g>
</svg>
